<svg width="165" height="228" viewBox="0 0 165 228" fill="none" xmlns="http://www.w3.org/2000/svg">
<path d="M89.3127 219.643C90.6841 220.083 129.7 219.58 131.172 218.617C131.738 218.259 131.996 212.572 132.109 205.683V205.47C132.109 204.054 132.153 202.588 132.16 201.11C132.16 200.909 132.16 200.701 132.16 200.481C132.21 190.548 132.053 180.237 132.053 180.237L105.952 180.501L106.738 200.55L106.77 201.349L106.927 205.495V205.923C106.927 205.923 92.0744 212.798 90.5709 214.025C89.0673 215.252 87.9413 219.209 89.3127 219.643Z" fill="#F7A9A0"/>
<path d="M89.3127 219.642C90.6841 220.082 129.7 219.579 131.172 218.616C131.738 218.258 131.996 212.571 132.109 205.682V205.468C132.109 204.053 132.153 202.587 132.16 201.109C132.16 200.908 132.16 200.7 132.16 200.48L106.738 200.549L106.77 201.348L106.927 205.494V205.921C106.927 205.921 92.0744 212.797 90.5709 214.024C89.0673 215.251 87.9413 219.208 89.3127 219.642Z" fill="#EBEBEB"/>
<path d="M89.3131 219.643C90.1624 219.919 105.273 219.825 117.106 219.492C124.498 219.29 130.6 218.988 131.172 218.617C131.745 218.246 131.99 212.729 132.104 205.973C132.104 205.878 132.104 205.784 132.104 205.689V205.469L106.94 205.513V205.947C106.94 205.947 92.0936 212.817 90.5838 214.044C89.074 215.27 87.948 219.208 89.3131 219.643Z" fill="#E8E8E8"/>
<path d="M89.7342 218.127C96.3081 217.876 122.849 217.498 129.367 217.756C129.417 217.756 129.417 217.8 129.367 217.8C122.856 218.19 96.3081 218.347 89.7342 218.234C89.5958 218.228 89.5958 218.127 89.7342 218.127Z" fill="#263238"/>
<path d="M104.147 205.62C106.726 205.104 109.897 205.463 111.897 207.281C111.979 207.35 111.897 207.463 111.79 207.438C109.303 206.67 106.741 206.17 104.147 205.947C104.104 205.947 104.062 205.93 104.031 205.899C104.001 205.869 103.983 205.827 103.983 205.784C103.983 205.74 104.001 205.699 104.031 205.668C104.062 205.637 104.104 205.62 104.147 205.62Z" fill="#263238"/>
<path d="M102.259 206.771C104.845 206.255 108.016 206.614 110.016 208.432C110.091 208.501 110.016 208.608 109.909 208.583C107.425 207.819 104.867 207.321 102.278 207.098C102.235 207.101 102.192 207.086 102.16 207.057C102.127 207.028 102.108 206.987 102.105 206.944C102.103 206.901 102.118 206.858 102.146 206.826C102.175 206.793 102.216 206.773 102.259 206.771Z" fill="#263238"/>
<path d="M100.429 207.922C103.008 207.406 106.179 207.764 108.179 209.583C108.261 209.652 108.179 209.759 108.072 209.734C105.589 208.967 103.031 208.467 100.441 208.243C100.404 208.237 100.369 208.218 100.344 208.19C100.319 208.161 100.304 208.125 100.303 208.087C100.301 208.049 100.313 208.012 100.336 207.982C100.359 207.952 100.392 207.93 100.429 207.922Z" fill="#263238"/>
<path d="M101.901 203.695C103.75 205.092 106.141 205.645 108.286 206.407C108.335 206.42 108.386 206.421 108.436 206.41C108.485 206.4 108.531 206.377 108.571 206.346C108.61 206.314 108.641 206.273 108.662 206.227C108.682 206.18 108.691 206.13 108.689 206.079C108.733 206.079 108.771 206.035 108.752 205.985C107.935 203.705 106.533 201.679 104.688 200.109C103.593 199.216 101.693 198.606 100.693 200.021C99.6928 201.437 100.825 202.877 101.901 203.695ZM101.215 201.619C100.725 198.782 103.794 200.235 104.568 200.927C105.065 201.383 105.53 201.873 105.959 202.393C106.832 203.477 107.651 204.605 108.412 205.771C107.38 205.331 106.317 204.985 105.267 204.582C104.021 204.104 101.486 203.211 101.215 201.619Z" fill="#263238"/>
<path d="M117.358 201.952C116.728 200.348 114.722 200.499 113.451 201.115C111.296 202.221 109.468 203.872 108.148 205.903C108.141 205.912 108.137 205.922 108.135 205.933C108.134 205.944 108.135 205.956 108.139 205.966C108.142 205.977 108.149 205.986 108.157 205.994C108.165 206.001 108.175 206.007 108.185 206.01C108.17 206.058 108.167 206.109 108.176 206.159C108.184 206.209 108.205 206.256 108.236 206.296C108.267 206.336 108.307 206.368 108.353 206.39C108.399 206.411 108.449 206.421 108.5 206.419C110.765 206.173 113.218 206.186 115.338 205.249C116.559 204.676 117.949 203.449 117.358 201.952ZM111.859 205.337C110.746 205.488 109.632 205.582 108.525 205.771C109.563 204.846 110.557 203.883 111.671 203.047C112.208 202.644 112.771 202.276 113.357 201.946C114.275 201.449 117.597 200.744 116.464 203.386C115.841 204.821 113.162 205.135 111.84 205.311L111.859 205.337Z" fill="#263238"/>
<path d="M92.9991 212.93C93.7312 212.901 94.4614 213.024 95.1435 213.292C95.8256 213.559 96.4449 213.965 96.9624 214.484C97.8997 215.411 98.4448 216.664 98.4848 217.982C98.4848 218.019 98.4156 218.019 98.4093 217.982C98.1664 216.68 97.5077 215.493 96.5321 214.598C95.5565 213.703 94.3167 213.148 92.9991 213.018C92.9874 213.018 92.9762 213.014 92.968 213.005C92.9597 212.997 92.9551 212.986 92.9551 212.974C92.9551 212.962 92.9597 212.951 92.968 212.943C92.9762 212.935 92.9874 212.93 92.9991 212.93Z" fill="#263238"/>
<path d="M127.681 211.785C130.637 211.753 130.694 216.352 127.731 216.384C124.768 216.415 124.718 211.823 127.681 211.785Z" fill="#263238"/>
<path d="M117.106 219.491C124.498 219.29 130.6 218.988 131.172 218.617C131.745 218.246 131.99 212.729 132.103 205.972C129.071 208.677 121.541 215.39 117.106 219.491Z" fill="#263238"/>
<path d="M140.068 67.8688C140.068 67.8688 134.211 133.797 133.255 138.83C133.035 139.975 132.896 146.203 132.808 154.217C132.607 171.693 132.726 203.21 132.726 203.21H105.223C105.223 203.21 106.04 148.599 107.255 138.547C108.469 128.494 116.257 67.8688 116.257 67.8688H140.068Z" fill="#48A1F7"/>
<path d="M106.468 198.417C110.759 198.329 109.526 198.298 113.816 198.254C115.917 198.254 129.719 198.115 131.682 198.436C131.726 198.436 131.726 198.518 131.682 198.524C129.719 198.851 115.917 198.732 113.816 198.713C109.526 198.669 110.759 198.637 106.468 198.543C106.452 198.543 106.436 198.536 106.424 198.525C106.412 198.513 106.405 198.497 106.405 198.48C106.405 198.463 106.412 198.447 106.424 198.436C106.436 198.424 106.452 198.417 106.468 198.417Z" fill="#263238"/>
<path d="M127.498 167.202L127.593 155.249C127.593 151.387 127.593 147.518 127.794 143.662C128.172 135.842 129.757 128.161 130.883 120.436C132.009 112.711 132.953 104.941 133.802 97.1595C134.758 88.4467 135.601 79.715 136.501 70.9958C136.501 70.9392 136.595 70.9392 136.589 70.9958C135.299 86.5657 133.852 102.129 131.694 117.605C131.158 121.455 130.573 125.296 129.939 129.13C129.31 133.011 128.681 136.899 128.354 140.818C128.027 144.737 128.002 148.518 127.964 152.368C127.918 156.357 127.878 160.341 127.844 164.321C127.756 173.178 127.675 186.811 127.586 195.662C127.586 195.697 127.573 195.731 127.548 195.755C127.523 195.78 127.489 195.794 127.454 195.794C127.419 195.794 127.386 195.78 127.361 195.755C127.336 195.731 127.322 195.697 127.322 195.662C127.379 187.773 127.423 175.097 127.498 167.202Z" fill="#263238"/>
<path d="M145.868 67.8688C145.868 67.8688 134.211 133.797 133.255 138.83C133.034 139.975 132.896 146.203 132.808 154.217L119.698 67.8688H145.868Z" fill="#263238"/>
<path d="M121.252 221.97C122.648 222.31 161.513 219.045 162.929 217.976C163.47 217.586 163.325 211.892 162.929 205.016C162.929 204.941 162.929 204.872 162.929 204.802C162.853 203.381 162.771 201.921 162.671 200.449C162.671 200.242 162.639 200.04 162.633 199.82C162.004 189.906 161.098 179.639 161.098 179.639L135.079 181.746L137.281 201.689L137.369 202.481L137.822 206.608L137.866 207.036C137.866 207.036 123.542 214.943 122.139 216.277C120.736 217.611 119.874 221.631 121.252 221.97Z" fill="#F7A9A0"/>
<path d="M121.252 221.971C122.648 222.31 161.513 219.045 162.929 217.976C163.47 217.586 163.325 211.893 162.929 205.017C162.929 204.941 162.929 204.872 162.929 204.803C162.853 203.381 162.771 201.922 162.671 200.45C162.671 200.242 162.639 200.041 162.633 199.82L137.281 201.708L137.369 202.5L137.822 206.627L137.866 207.055C137.866 207.055 123.542 214.963 122.139 216.296C120.736 217.63 119.874 221.631 121.252 221.971Z" fill="#EBEBEB"/>
<path d="M121.252 221.97C122.648 222.31 161.513 219.045 162.929 217.975C163.47 217.585 163.325 211.892 162.929 205.016C162.929 204.941 162.929 204.871 162.929 204.802L137.822 206.626L137.866 207.054C137.866 207.054 123.542 214.962 122.139 216.296C120.736 217.629 119.874 221.63 121.252 221.97Z" fill="#E8E8E8"/>
<path d="M121.566 220.422C128.103 219.711 154.556 217.459 161.073 217.277C161.13 217.277 161.13 217.308 161.073 217.315C154.606 218.164 128.14 220.202 121.566 220.554C121.434 220.536 121.428 220.441 121.566 220.422Z" fill="#263238"/>
<path d="M135.041 206.935C137.557 206.237 140.766 206.369 142.892 208.036C142.974 208.105 142.892 208.218 142.798 208.199C140.265 207.614 137.678 207.299 135.079 207.262C135.041 207.257 135.007 207.24 134.98 207.213C134.954 207.186 134.937 207.151 134.933 207.113C134.928 207.076 134.937 207.038 134.956 207.005C134.976 206.973 135.006 206.948 135.041 206.935Z" fill="#263238"/>
<path d="M133.274 208.243C135.79 207.545 138.998 207.677 141.125 209.35C141.206 209.413 141.125 209.526 141.03 209.508C138.498 208.922 135.91 208.608 133.311 208.57C133.274 208.565 133.239 208.548 133.213 208.521C133.186 208.494 133.17 208.459 133.165 208.421C133.161 208.384 133.169 208.346 133.189 208.314C133.208 208.281 133.238 208.257 133.274 208.243Z" fill="#263238"/>
<path d="M131.506 209.501C134.022 208.803 137.23 208.935 139.357 210.608C139.438 210.671 139.357 210.791 139.262 210.772C136.731 210.181 134.143 209.864 131.543 209.828C131.506 209.823 131.471 209.806 131.445 209.779C131.418 209.752 131.401 209.717 131.397 209.679C131.393 209.642 131.401 209.604 131.421 209.571C131.44 209.539 131.47 209.514 131.506 209.501Z" fill="#263238"/>
<path d="M132.676 205.167C134.62 206.425 137.048 206.809 139.244 207.419C139.47 207.482 139.627 207.262 139.621 207.067C139.632 207.065 139.642 207.061 139.651 207.054C139.66 207.048 139.667 207.039 139.672 207.029C139.677 207.02 139.68 207.009 139.68 206.998C139.679 206.987 139.677 206.976 139.672 206.966C138.696 204.75 137.156 202.828 135.205 201.393C134.047 200.581 132.11 200.134 131.217 201.588C130.323 203.041 131.544 204.425 132.676 205.167ZM131.827 203.148C131.135 200.355 134.299 201.588 135.123 202.217C135.653 202.635 136.151 203.091 136.614 203.582C137.564 204.6 138.46 205.667 139.3 206.778C138.237 206.413 137.155 206.148 136.079 205.815C134.821 205.425 132.229 204.683 131.827 203.148Z" fill="#263238"/>
<path d="M147.95 202.311C147.195 200.757 145.22 201.053 144 201.757C141.924 203.007 140.214 204.782 139.042 206.903C139.037 206.912 139.034 206.923 139.034 206.933C139.033 206.944 139.035 206.955 139.04 206.964C139.044 206.974 139.05 206.983 139.058 206.989C139.066 206.996 139.076 207.001 139.086 207.004C139.086 207.205 139.2 207.438 139.432 207.394C141.672 206.985 144.119 206.828 146.17 205.739C147.365 205.098 148.667 203.783 147.95 202.311ZM142.704 206.085C141.609 206.312 140.502 206.488 139.413 206.758C140.349 205.726 141.338 204.743 142.376 203.814C142.882 203.368 143.418 202.958 143.981 202.588C144.861 202.034 148.12 201.097 147.183 203.814C146.661 205.305 144.012 205.808 142.704 206.079V206.085Z" fill="#263238"/>
<path d="M123.837 215.22C124.564 215.124 125.302 215.182 126.006 215.389C126.709 215.596 127.361 215.948 127.92 216.421C128.936 217.259 129.588 218.459 129.738 219.768C129.738 219.812 129.669 219.818 129.663 219.768C129.308 218.492 128.55 217.365 127.5 216.558C126.451 215.75 125.168 215.305 123.843 215.289C123.838 215.285 123.833 215.28 123.83 215.275C123.826 215.269 123.824 215.262 123.823 215.256C123.823 215.249 123.824 215.242 123.826 215.236C123.828 215.23 123.832 215.224 123.837 215.22Z" fill="#263238"/>
<path d="M158.286 211.068C161.23 210.778 161.689 215.352 158.739 215.641C155.788 215.931 155.336 211.389 158.286 211.068Z" fill="#263238"/>
<path d="M136.708 204.695L164.18 203.531C164.18 203.531 156.682 143.233 156.543 139.528C156.185 129.916 149.793 67.8436 149.793 67.8436H116.231C116.231 67.8436 118.351 82.1742 121.975 91.2582C124.408 92.1107 126.758 93.1846 128.996 94.4666C128.996 94.4666 132.141 135.514 132.254 140.635C132.487 150.757 136.708 204.695 136.708 204.695Z" fill="#48A1F7"/>
<path d="M137.438 199.662C141.722 199.392 140.489 199.411 144.773 199.184C146.875 199.077 160.658 198.373 162.633 198.612C162.645 198.612 162.656 198.616 162.664 198.625C162.673 198.633 162.677 198.644 162.677 198.656C162.677 198.667 162.673 198.679 162.664 198.687C162.656 198.695 162.645 198.7 162.633 198.7C160.689 199.109 146.906 199.574 144.792 199.643C140.502 199.782 141.735 199.694 137.445 199.788C137.428 199.789 137.412 199.783 137.399 199.772C137.387 199.761 137.379 199.745 137.378 199.728C137.378 199.712 137.383 199.695 137.395 199.683C137.406 199.671 137.422 199.663 137.438 199.662Z" fill="#263238"/>
<path d="M147.333 71.5237C148.592 87.1565 149.85 102.789 151.29 118.409C152.731 134.03 154.404 149.732 156.449 165.339C157.588 174.052 158.858 186.332 160.223 195.02C160.223 195.076 160.142 195.101 160.129 195.02C157.361 179.582 155.329 160.42 153.593 144.85C151.857 129.28 150.447 113.647 149.189 98.0208C148.478 89.1821 147.837 80.3372 147.157 71.4985C147.126 71.3979 147.321 71.3979 147.333 71.5237Z" fill="#263238"/>
<path d="M120.774 90.6357C123.62 91.6718 126.371 92.9537 128.996 94.4668C129.096 94.5234 129.027 94.6807 128.92 94.6304C126.146 93.4414 123.328 92.309 120.623 90.9691C120.578 90.9491 120.544 90.9123 120.527 90.8669C120.51 90.8215 120.511 90.7711 120.531 90.7269C120.551 90.6827 120.588 90.6482 120.634 90.6311C120.679 90.614 120.729 90.6157 120.774 90.6357Z" fill="#263238"/>
<path d="M119.874 71.6366C119.874 71.5422 120.05 71.5234 120.05 71.6366C120.05 74.9204 120.239 77.8142 120.516 80.8842C120.641 82.3122 121.774 90.1946 124.29 89.6222C124.705 89.5215 124.919 89.1189 124.982 88.4898C124.97 87.674 124.858 86.8627 124.649 86.0741C124.378 84.4259 124.158 82.7714 124.02 81.1043C123.732 78.0015 123.766 74.8772 124.12 71.7813C124.12 71.7596 124.129 71.7388 124.144 71.7235C124.16 71.7081 124.18 71.6995 124.202 71.6995C124.224 71.6995 124.245 71.7081 124.26 71.7235C124.275 71.7388 124.284 71.7596 124.284 71.7813C124.209 76.0844 124.459 80.387 125.032 84.6524C125.341 86.7032 126.379 89.792 124.234 90.1066C122.088 90.4211 120.635 85.2563 120.371 83.8157C119.679 79.7946 119.512 75.7007 119.874 71.6366Z" fill="#263238"/>
<path d="M124.215 89.8178C124.438 90.3498 124.625 90.8963 124.775 91.4534C124.933 91.8843 125.012 92.3405 125.007 92.7997C124.999 92.8154 124.986 92.8285 124.97 92.8377C124.955 92.8468 124.937 92.8516 124.919 92.8516C124.901 92.8516 124.884 92.8468 124.868 92.8377C124.853 92.8285 124.84 92.8154 124.831 92.7997C124.576 92.3969 124.383 91.9578 124.259 91.4975C124.07 90.9879 123.869 90.4909 123.699 89.9751C123.695 89.9127 123.712 89.8507 123.747 89.7992C123.783 89.7477 123.834 89.7097 123.894 89.6915C123.954 89.6732 124.018 89.6758 124.077 89.6987C124.135 89.7217 124.183 89.7636 124.215 89.8178Z" fill="#263238"/>
<path d="M12.9355 206.212L12.8726 204.954L79.2223 201.544L74.3028 171.977L75.5421 171.776L80.6944 202.733L12.9355 206.212Z" fill="#C7C7C7"/>
<path d="M20.9704 214.558C23.9889 212.197 24.5221 207.836 22.1612 204.817C19.8002 201.799 15.4393 201.266 12.4207 203.627C9.40212 205.987 8.86898 210.348 11.2299 213.367C13.5908 216.386 17.9518 216.919 20.9704 214.558Z" fill="#37474F"/>
<path d="M13.5581 209.074C13.5581 209.696 13.7426 210.305 14.0882 210.822C14.4338 211.339 14.9251 211.742 15.4998 211.98C16.0746 212.218 16.707 212.281 17.3172 212.159C17.9273 212.038 18.4878 211.738 18.9277 211.299C19.3676 210.859 19.6672 210.298 19.7885 209.688C19.9099 209.078 19.8476 208.445 19.6095 207.871C19.3715 207.296 18.9683 206.805 18.451 206.459C17.9338 206.113 17.3256 205.929 16.7035 205.929C15.8693 205.929 15.0693 206.26 14.4794 206.85C13.8895 207.44 13.5581 208.24 13.5581 209.074Z" fill="#EBEBEB"/>
<path d="M71.482 215.813C75.2107 214.929 77.516 211.189 76.6312 207.46C75.7463 203.731 72.0063 201.426 68.2777 202.311C64.549 203.196 62.2437 206.936 63.1285 210.664C64.0134 214.393 67.7534 216.698 71.482 215.813Z" fill="#37474F"/>
<path d="M66.7036 209.074C66.7036 209.696 66.8881 210.305 67.2337 210.822C67.5793 211.339 68.0706 211.742 68.6453 211.98C69.2201 212.218 69.8525 212.281 70.4627 212.159C71.0728 212.038 71.6333 211.738 72.0732 211.299C72.5131 210.859 72.8127 210.298 72.934 209.688C73.0554 209.078 72.9931 208.445 72.755 207.871C72.517 207.296 72.1138 206.805 71.5965 206.459C71.0793 206.113 70.4712 205.929 69.849 205.929C69.0148 205.929 68.2148 206.26 67.6249 206.85C67.035 207.44 66.7036 208.24 66.7036 209.074Z" fill="#EBEBEB"/>
<path d="M24.8129 213.861L24.7437 212.603L91.0997 209.194L84.6453 170.423L85.8909 170.215L92.5717 210.376L24.8129 213.861Z" fill="#C7C7C7"/>
<path d="M33.0161 222.056C35.9654 219.609 36.3728 215.235 33.9259 212.285C31.4791 209.336 27.1046 208.929 24.1552 211.376C21.2059 213.822 20.7985 218.197 23.2454 221.146C25.6922 224.096 30.0667 224.503 33.0161 222.056Z" fill="#37474F"/>
<path d="M25.4165 216.723C25.4165 217.345 25.601 217.953 25.9466 218.47C26.2922 218.988 26.7835 219.391 27.3582 219.629C27.933 219.867 28.5654 219.929 29.1756 219.808C29.7857 219.687 30.3462 219.387 30.7861 218.947C31.226 218.507 31.5256 217.947 31.6469 217.337C31.7683 216.726 31.706 216.094 31.4679 215.519C31.2299 214.944 30.8267 214.453 30.3094 214.108C29.7922 213.762 29.184 213.578 28.5619 213.578C27.7277 213.578 26.9277 213.909 26.3378 214.499C25.7479 215.089 25.4165 215.889 25.4165 216.723Z" fill="#EBEBEB"/>
<path d="M88.267 221.29C89.7616 217.764 88.1151 213.695 84.5895 212.2C81.0638 210.706 76.9942 212.352 75.4996 215.878C74.005 219.403 75.6515 223.473 79.1772 224.968C82.7028 226.462 86.7725 224.816 88.267 221.29Z" fill="#37474F"/>
<path d="M78.5806 216.723C78.5806 217.345 78.765 217.953 79.1107 218.47C79.4563 218.988 79.9476 219.391 80.5223 219.629C81.0971 219.867 81.7295 219.929 82.3396 219.808C82.9498 219.687 83.5103 219.387 83.9502 218.947C84.3901 218.507 84.6896 217.947 84.811 217.337C84.9324 216.726 84.8701 216.094 84.632 215.519C84.3939 214.944 83.9908 214.453 83.4735 214.108C82.9562 213.762 82.3481 213.578 81.726 213.578C80.8918 213.578 80.0917 213.909 79.5018 214.499C78.912 215.089 78.5806 215.889 78.5806 216.723Z" fill="#EBEBEB"/>
<path d="M10.5639 168.019L0.869629 123.832L66.9237 113.138L67.5905 159.3L67.0495 159.382L10.5639 168.019ZM2.38573 124.858L11.5452 166.598L66.3324 158.237L65.7033 114.635L2.38573 124.858Z" fill="#A6A6A6"/>
<path d="M17.7377 121.737L16.4946 121.932L23.2999 165.439L24.5429 165.244L17.7377 121.737Z" fill="#A6A6A6"/>
<path d="M35.4078 118.937L34.1572 119.075L39.0025 163.033L40.2531 162.895L35.4078 118.937Z" fill="#A6A6A6"/>
<path d="M52.6921 116.408L51.4351 116.463L53.3475 160.797L54.6045 160.743L52.6921 116.408Z" fill="#A6A6A6"/>
<path d="M66.841 127.167L4.72168 138.411L4.94578 139.649L67.0651 128.405L66.841 127.167Z" fill="#A6A6A6"/>
<path d="M66.8713 143.902L7.88135 152.665L8.06623 153.91L67.0562 145.146L66.8713 143.902Z" fill="#A6A6A6"/>
<path d="M94.4842 170.077L66.3389 159.206V113.126L109.312 125.588L94.4842 170.077ZM67.597 158.344L93.7104 168.41L107.708 126.462L67.597 114.799V158.344Z" fill="#DBDBDB"/>
<path d="M67.1847 127.169L66.7349 128.344L103.042 142.245L103.492 141.07L67.1847 127.169Z" fill="#DBDBDB"/>
<path d="M67.1964 143.936L66.7212 145.101L97.8555 157.8L98.3307 156.635L67.1964 143.936Z" fill="#DBDBDB"/>
<path d="M80.658 117.929L74.7969 161.973L76.0441 162.139L81.9051 118.095L80.658 117.929Z" fill="#DBDBDB"/>
<path d="M94.5996 121.984L84.749 165.73L85.9765 166.006L95.827 122.261L94.5996 121.984Z" fill="#DBDBDB"/>
<path d="M77.0513 78.0601L66.3511 113.771L67.5563 114.132L78.2565 78.4212L77.0513 78.0601Z" fill="#DBDBDB"/>
<path d="M119.558 86.5445L107.815 125.733L109.021 126.094L120.763 86.9057L119.558 86.5445Z" fill="#DBDBDB"/>
<path d="M75.1162 76.2935L74.6089 78.7582L122.818 88.6804L123.325 86.2157L75.1162 76.2935Z" fill="#263238"/>
<path d="M33.4563 177.619L10.5576 168.032L10.4884 167.711L0.819336 123.606L29.2855 135.269L33.4563 177.619ZM11.6711 167.126L32.022 175.644L28.0965 136.156L2.58707 125.682L11.6711 167.126Z" fill="#DBDBDB"/>
<path d="M10.4169 127.652L9.17773 127.87L16.5916 170.045L17.8308 169.828L10.4169 127.652Z" fill="#DBDBDB"/>
<path d="M19.752 131.623L18.5063 131.8L24.431 173.429L25.6766 173.251L19.752 131.623Z" fill="#DBDBDB"/>
<path d="M7.89469 156.717L7.47949 157.9L30.4117 165.951L30.8269 164.768L7.89469 156.717Z" fill="#DBDBDB"/>
<path d="M5.07881 138.679L4.61523 139.849L29.7746 149.82L30.2381 148.65L5.07881 138.679Z" fill="#DBDBDB"/>
<path d="M33.4185 177.6L27.958 135.169L109.324 125.5L94.4713 170.114L94.0813 170.165L33.4185 177.6ZM29.3672 136.263L34.5068 176.198L93.534 168.963L107.506 126.984L29.3672 136.263Z" fill="#EBEBEB"/>
<path d="M47.3989 133.505L46.1455 133.615L49.7148 174.576L50.9682 174.467L47.3989 133.505Z" fill="#EBEBEB"/>
<path d="M67.8866 130.899L65.4839 172.57L66.74 172.642L69.1427 130.972L67.8866 130.899Z" fill="#EBEBEB"/>
<path d="M88.6685 128.38L80.6548 170.792L81.8911 171.025L89.9048 128.614L88.6685 128.38Z" fill="#EBEBEB"/>
<path d="M103.527 140.117L29.9482 148.396L30.0889 149.647L103.668 141.367L103.527 140.117Z" fill="#EBEBEB"/>
<path d="M98.0205 156.608L31.48 163.567L31.6108 164.818L98.1513 157.86L98.0205 156.608Z" fill="#EBEBEB"/>
<path d="M124.655 34.2196C121.277 39.5291 108.777 58.754 100.976 58.754C96.2831 58.754 80.3672 50.752 76.8569 48.0595C72.749 44.9141 83.7769 34.9808 86.5952 36.1509C90.0866 37.5915 99.6487 43.1715 101.882 43.1715C103.876 43.1715 109.588 36.7611 120.459 29.6839C126.045 25.9975 127.568 29.6399 124.655 34.2196Z" fill="#F7A9A0"/>
<path d="M77.2594 48.3174C75.7873 47.6128 69.314 43.788 67.7476 42.3222C66.1812 40.8564 61.9915 36.3018 62.998 34.9933C64.0045 33.6848 65.3319 34.9116 65.3319 34.9116C65.3319 34.9116 63.885 32.7286 64.9922 31.4705C66.0994 30.2123 68.1376 32.2317 68.1376 32.2317C68.1376 32.2317 66.7977 29.86 68.0118 28.7151C69.226 27.5701 70.9119 29.9103 70.9119 29.9103C70.9119 29.9103 69.5845 27.7966 70.9811 27.2744C72.6608 26.6454 74.6675 30.8162 76.5171 32.3071C76.9385 32.6468 85.513 38.598 85.513 38.598L77.2594 48.3174Z" fill="#F7A9A0"/>
<path d="M70.7612 29.721C72.2458 32.7846 73.4285 33.8667 76.272 35.6344C76.3223 35.6721 76.272 35.7602 76.2216 35.7288C73.2838 34.2504 71.6105 33.1055 70.6102 29.7902C70.5662 29.6266 70.692 29.5826 70.7612 29.721Z" fill="#263238"/>
<path d="M68.0246 31.9985C69.8427 35.0432 71.1072 36.2259 73.9506 38.2893C73.9884 38.2893 73.9507 38.39 73.9003 38.3648C70.9436 36.5656 69.3017 35.383 67.8862 32.074C67.817 31.967 67.9429 31.8601 68.0246 31.9985Z" fill="#263238"/>
<path d="M65.4771 35.0115C67.4524 37.8361 68.7861 39.1949 71.8057 40.8494C71.8166 40.8594 71.824 40.8726 71.8268 40.8872C71.8297 40.9017 71.8278 40.9167 71.8215 40.9301C71.8151 40.9435 71.8047 40.9544 71.7917 40.9614C71.7786 40.9684 71.7637 40.9711 71.7491 40.969C68.9426 39.915 66.6629 37.8002 65.4016 35.0807C65.3009 34.892 65.3575 34.8354 65.4771 35.0115Z" fill="#263238"/>
<path d="M88.6147 38.265C88.0514 36.2904 87.3428 34.3601 86.4947 32.49C85.57 30.8103 79.8264 25.8154 78.6752 26.9918C77.1905 28.5142 79.9333 32.0559 81.5123 33.6098C81.5123 33.6098 78.0775 37.1327 79.4993 40.0957C80.921 43.0587 88.6147 38.265 88.6147 38.265Z" fill="#F7A9A0"/>
<path d="M78.4044 27.5448C78.0522 29.9101 80.2477 31.8226 81.6631 33.4456C81.685 33.4683 81.7011 33.4959 81.71 33.5262C81.7189 33.5565 81.7203 33.5884 81.7141 33.6194C81.7079 33.6503 81.6943 33.6793 81.6745 33.7038C81.6547 33.7283 81.6292 33.7476 81.6002 33.7601C80.254 35.3329 78.8196 37.9436 79.3732 40.051C79.3752 40.0628 79.373 40.075 79.3668 40.0853C79.3606 40.0956 79.3509 40.1034 79.3395 40.1072C79.3282 40.111 79.3158 40.1106 79.3046 40.106C79.2935 40.1015 79.2844 40.0931 79.2789 40.0825C78.3793 37.8995 79.5808 35.2259 81.1661 33.5966C79.6941 31.9547 77.5741 29.9416 78.3919 27.5385C78.3919 27.5259 78.4107 27.5322 78.4044 27.5448Z" fill="#263238"/>
<path d="M106.959 37.8298L117.465 47.1969C117.465 47.1969 123.441 40.0001 125.92 33.1242C128.398 26.2483 122.485 27.0724 118.289 29.853C114.093 32.6335 106.959 37.8298 106.959 37.8298Z" fill="#E8E8E8"/>
<path d="M118.616 44.9447C115.488 42.3904 112.521 39.6444 109.733 36.7226C109.695 36.7226 109.733 36.6345 109.79 36.6722C110.544 37.4334 115.187 41.3904 118.679 44.8881C118.735 44.9259 118.672 44.9825 118.616 44.9447Z" fill="#263238"/>
<path d="M125.913 33.1438C123.441 40.0197 117.465 47.1975 117.465 47.1975L112.627 42.8757C115.829 38.4721 121 31.288 123.573 27.8217C125.901 27.6959 127.385 29.0673 125.913 33.1438Z" fill="#263238"/>
<path d="M112.639 76.7641C113.268 77.3932 151.957 77.022 152.152 76.7641C152.668 76.0658 146.742 51.1226 142.294 41.6611C136.595 29.526 133.575 28.5195 131.776 27.8212C129.474 26.9531 123.459 27.3116 122.472 27.7583C121.358 28.2616 118.521 33.9296 117.194 38.4528C114.526 47.4739 112.079 76.1791 112.639 76.7641Z" fill="#E8E8E8"/>
<path d="M137.551 39.0699C137.356 50.9848 136.853 65.07 133.556 69.0458C128.561 75.0662 116.08 81.2438 110.966 82.3824C108.84 82.8543 102.87 66.7811 105.153 66.303C110.016 65.2839 121.126 60.679 122.139 59.6787C123.151 58.6785 126.97 47.1851 130.034 38.1954C133.714 27.3814 137.664 32.1688 137.551 39.0699Z" fill="#F7A9A0"/>
<path d="M107.752 65.6235C107.752 65.6235 101.329 67.2592 97.1767 68.5299C94.8616 69.2345 90.999 70.8072 89.5396 72.1031C87.3503 74.0407 79.4364 83.5588 81.7011 85.5278C83.752 87.3081 89.5144 78.2682 89.5144 78.2682C89.5144 78.2682 82.8964 86.8804 85.7399 88.5726C88.5833 90.2649 93.7544 79.1803 93.7544 79.1803C93.7544 79.1803 87.149 88.1763 90.3825 89.4533C92.8234 90.4221 98.0511 80.6461 98.0511 80.6461C98.0511 80.6461 92.4334 88.4153 94.9057 89.5162C97.6296 90.7304 103.027 82.0175 103.027 82.0175C109.771 83.7601 113.69 81.8288 116.32 80.1303C116.968 79.7214 107.752 65.6235 107.752 65.6235Z" fill="#F7A9A0"/>
<path d="M91.6154 75.1474C90.7976 76.1288 89.9672 77.1164 89.2438 78.1733C88.5203 79.2302 87.8283 80.2996 87.2055 81.4131C86.3675 82.8554 85.6943 84.3875 85.1987 85.9803C86.2808 83.2186 88.816 79.4126 89.5394 78.362C90.2629 77.3114 90.9297 76.2231 91.6532 75.1726C91.672 75.1474 91.6343 75.1222 91.6154 75.1474Z" fill="#263238"/>
<path d="M95.4593 77.6951C94.0627 78.796 91.1374 82.9165 90.0051 85.6782C89.961 85.7914 90.0051 85.7851 90.0931 85.6782C90.9739 84.3131 94.5471 79.0287 95.4907 77.7139C95.5033 77.6951 95.4781 77.6762 95.4593 77.6951Z" fill="#263238"/>
<path d="M99.1516 79.2809C97.4162 81.1009 96.0453 83.2363 95.1129 85.5717C95.0626 85.685 95.1569 85.6661 95.2198 85.5717C96.5283 83.4517 97.5349 81.7972 99.2208 79.3312C99.246 79.2809 99.1893 79.2809 99.1516 79.2809Z" fill="#263238"/>
<path d="M124.624 49.3932L138.558 51.4754C138.558 51.4754 139.602 42.1775 137.897 35.0752C136.192 27.9728 131.707 31.9297 129.719 36.5221C127.731 41.1144 124.624 49.3932 124.624 49.3932Z" fill="#E8E8E8"/>
<path d="M138.117 48.7256C134.101 48.3834 130.109 47.7952 126.165 46.9642C126.115 46.9642 126.133 46.8761 126.165 46.8887C127.215 47.09 133.28 47.7317 138.117 48.6375C138.206 48.6501 138.187 48.7256 138.117 48.7256Z" fill="#263238"/>
<path d="M126.618 44.6178C127.247 43.0388 128.159 40.793 128.681 39.1825C128.681 39.1825 128.681 39.1825 128.643 39.1825C128.234 40.0192 127.863 40.8747 127.505 41.7429L127.542 41.5856C127.63 41.1012 127.706 40.6168 127.756 40.1261C127.611 40.6042 127.492 41.0823 127.391 41.573C127.328 41.875 127.278 42.2021 127.234 42.4915C127.045 42.9507 126.567 44.0705 126.385 44.5234C126.083 45.2972 124.365 49.4806 124.447 49.4995C124.529 49.5184 125.875 49.6568 126.127 49.7008C126.196 49.7008 126.209 49.6002 126.127 49.6065C125.875 49.6065 124.812 49.4114 124.705 49.3926C124.994 48.5873 125.366 47.801 125.686 47.002C126.007 46.2031 126.309 45.4104 126.618 44.6178Z" fill="#263238"/>
<path d="M139.414 42.2465C139.307 42.6679 139.219 43.0894 139.143 43.5046C139.143 43.6493 139.105 43.794 139.086 43.945C139.049 42.9007 138.961 41.8564 138.822 40.7996C138.822 40.7996 138.778 40.7996 138.784 40.7996C138.898 42.5547 138.854 44.2973 138.784 46.0524C138.784 46.9017 138.722 47.7573 138.671 48.6065C138.671 49.0406 138.615 49.481 138.596 49.915C138.577 50.3491 138.514 51.3934 138.514 51.3934C138.275 51.3493 137.47 51.2487 137.18 51.2235C137.111 51.2235 137.111 51.2801 137.18 51.2864C137.426 51.3242 138.659 51.5632 138.665 51.5381C138.665 51.0788 138.784 50.5378 138.829 50.0849C138.873 49.6319 138.904 49.2482 138.935 48.8267C138.998 47.9271 139.049 47.0275 139.08 46.1216C139.08 45.6309 139.08 45.134 139.08 44.637C139.149 44.2595 139.244 43.8821 139.307 43.5046C139.37 43.1272 139.445 42.6491 139.489 42.2465C139.527 42.1961 139.432 42.1647 139.414 42.2465Z" fill="#263238"/>
<path d="M123.56 33.9489C125.706 34.578 129.65 31.4828 131.286 28.8658C131.399 28.6834 131.229 26.7207 131.135 24.3176C131.084 22.8581 131.059 21.235 131.135 19.7504C131.135 19.4484 121.698 21.4678 121.698 21.4678C122.119 23.3523 122.309 25.281 122.264 27.2113C122.25 27.4236 122.216 27.6342 122.164 27.8404C122.162 27.874 122.162 27.9076 122.164 27.9411C121.9 29.0672 121.478 33.3575 123.56 33.9489Z" fill="#F7A9A0"/>
<path d="M130.568 19.757C129.989 22.2733 128.052 28.2056 123.101 28.0294C122.782 28.0188 122.464 27.983 122.151 27.9225C122.146 27.8891 122.146 27.8552 122.151 27.8218C122.203 27.6155 122.236 27.405 122.252 27.1928C122.3 25.2581 122.11 23.3248 121.686 21.4366C121.686 21.4366 128.536 20.0086 130.568 19.757Z" fill="#263238"/>
<path d="M131.695 7.83522C132.953 11.0499 131.971 20.7063 129.807 23.0151C126.662 26.3618 121.113 27.0979 118.176 23.2164C115.326 19.4419 116.836 6.89789 119.302 4.76528C122.925 1.61985 129.826 3.08562 131.695 7.83522Z" fill="#F7A9A0"/>
<path d="M123.051 14.3781C123.051 14.3781 123.101 14.4158 123.095 14.441C123.013 15.07 123.026 15.8501 123.592 16.1206C123.592 16.1206 123.592 16.1647 123.592 16.1584C122.875 15.9885 122.868 14.982 123.051 14.3781Z" fill="#263238"/>
<path d="M123.699 13.755C124.755 13.755 124.63 15.8876 123.655 15.8625C122.68 15.8373 122.818 13.7361 123.699 13.755Z" fill="#263238"/>
<path d="M119.396 14.1884C119.396 14.1884 119.345 14.1884 119.345 14.2387C119.345 14.8678 119.194 15.6415 118.597 15.824V15.8617C119.326 15.7988 119.484 14.8111 119.396 14.1884Z" fill="#263238"/>
<path d="M118.855 13.472C117.811 13.3336 117.597 15.4347 118.572 15.5606C119.547 15.6864 119.729 13.5915 118.855 13.472Z" fill="#263238"/>
<path d="M124.586 12.8435C124.302 12.7555 124.057 12.6233 123.787 12.5101C123.489 12.431 123.226 12.2564 123.038 12.0131C122.992 11.9256 122.978 11.8253 122.996 11.7284C123.014 11.6314 123.064 11.5434 123.139 11.4784C123.304 11.3705 123.495 11.3089 123.692 11.3001C123.889 11.2912 124.084 11.3354 124.258 11.4281C124.642 11.5561 124.962 11.8263 125.152 12.183C125.19 12.2662 125.204 12.3587 125.192 12.4495C125.179 12.5403 125.141 12.6257 125.081 12.6953C125.021 12.7649 124.943 12.8159 124.855 12.8422C124.767 12.8685 124.674 12.8689 124.586 12.8435Z" fill="#263238"/>
<path d="M118.1 12.3648C118.386 12.3239 118.67 12.2672 118.949 12.1949C119.258 12.1775 119.552 12.058 119.786 11.8552C119.845 11.7775 119.877 11.6824 119.877 11.5847C119.877 11.487 119.845 11.392 119.786 11.3142C119.645 11.1763 119.47 11.0785 119.279 11.031C119.087 10.9834 118.887 10.9878 118.698 11.0437C118.297 11.0936 117.931 11.2937 117.672 11.6036C117.614 11.677 117.579 11.766 117.572 11.8593C117.564 11.9527 117.585 12.0461 117.631 12.1277C117.677 12.2093 117.746 12.2754 117.829 12.3177C117.913 12.3599 118.007 12.3763 118.1 12.3648Z" fill="#263238"/>
<path d="M123.793 20.5051C123.623 20.6498 123.46 20.8511 123.221 20.8574C122.979 20.8387 122.743 20.7701 122.529 20.6561C122.529 20.6561 122.485 20.6561 122.497 20.6875C122.584 20.8199 122.704 20.9269 122.846 20.9977C122.987 21.0684 123.145 21.1003 123.303 21.0901C123.438 21.063 123.562 20.9966 123.659 20.8992C123.756 20.8019 123.823 20.6779 123.85 20.5428C123.862 20.5051 123.812 20.4862 123.793 20.5051Z" fill="#263238"/>
<path d="M121.188 19.1715C121.443 19.5446 121.79 19.8457 122.195 20.0459C122.419 20.151 122.67 20.1819 122.912 20.134C123.441 20.027 123.485 19.5489 123.409 19.1337C123.369 18.917 123.304 18.7058 123.214 18.5046C122.627 18.9358 121.917 19.1693 121.188 19.1715Z" fill="#263238"/>
<path d="M122.195 20.0453C122.419 20.1504 122.67 20.1813 122.912 20.1334C123.441 20.0264 123.485 19.5483 123.409 19.1331C123.134 19.1256 122.864 19.2117 122.643 19.3774C122.423 19.543 122.265 19.7785 122.195 20.0453Z" fill="#FF98B9"/>
<path d="M118.112 8.52747C121.308 10.723 125.662 7.41399 125.662 7.41399C125.935 8.11161 126.426 8.70253 127.062 9.09914C127.697 9.49575 128.444 9.67693 129.191 9.61579C129.191 9.61579 129.82 15.0322 131.242 15.0196C133.418 15.0196 134.098 7.62788 133.412 6.17469C132.726 4.7215 130.896 4.35034 130.896 4.35034C130.692 3.47215 130.164 2.70346 129.417 2.19887C127.933 1.06022 122.805 2.5889 122.805 2.5889C122.513 1.90382 122.065 1.29638 121.497 0.814873C121.36 0.695416 121.2 0.604961 121.027 0.548959C120.854 0.492958 120.672 0.472572 120.491 0.489032C120.309 0.505492 120.134 0.558459 119.974 0.644734C119.814 0.731009 119.673 0.848807 119.559 0.991022C119.832 1.39024 120.011 1.84629 120.082 2.32468C120.333 3.90998 119.044 3.90998 119.056 2.46937C119.041 1.93217 119.22 1.40746 119.559 0.991022C118.93 0.0473922 117.88 -0.267153 117.244 0.242407C116.099 1.15458 115.47 6.70312 118.112 8.52747Z" fill="#263238"/>
<path d="M130.273 15.7431C130.273 15.7431 132.248 12.5348 133.689 13.2268C135.129 13.9188 133.777 18.4734 132.173 19.1842C131.973 19.289 131.754 19.3522 131.529 19.3702C131.304 19.3881 131.078 19.3604 130.864 19.2887C130.65 19.217 130.453 19.1028 130.284 18.953C130.116 18.8031 129.979 18.6207 129.883 18.4168L130.273 15.7431Z" fill="#F7A9A0"/>
<path d="M133.267 14.5292C133.267 14.5292 133.305 14.5606 133.267 14.5732C132.147 15.1079 131.6 16.2088 131.241 17.3412C131.302 17.222 131.387 17.1173 131.492 17.0343C131.596 16.9513 131.717 16.8919 131.847 16.8602C131.977 16.8285 132.112 16.8253 132.243 16.8508C132.374 16.8763 132.498 16.9298 132.606 17.0078C132.612 17.0112 132.616 17.0159 132.619 17.0214C132.622 17.0269 132.623 17.033 132.623 17.0392C132.623 17.0455 132.622 17.0516 132.619 17.0571C132.616 17.0626 132.612 17.0672 132.606 17.0707C132.399 17.0198 132.182 17.0335 131.983 17.1099C131.784 17.1864 131.613 17.322 131.493 17.4985C131.301 17.7962 131.138 18.1123 131.009 18.4421C130.958 18.549 130.77 18.505 130.801 18.3855C130.681 16.8945 131.701 14.7682 133.267 14.5292Z" fill="#263238"/>
</svg>
