<svg width="85" height="85" viewBox="0 0 85 85" fill="none" xmlns="http://www.w3.org/2000/svg">
<g clip-path="url(#clip0)">
<path d="M21.9097 5.50452C21.9097 5.50452 14.4285 32.1023 8.69287 49.871C10.5199 50.5443 20.6366 58.2959 24.1476 60.766C27.1899 62.9015 38.2176 71.0495 40.3018 73.4789C55.1501 76.0146 68.7292 78.1448 68.7292 78.1448C68.7292 78.1448 84.2233 17.0506 84.3677 15.5911C84.5173 14.1276 21.9137 5.50452 21.9137 5.50452" fill="#8EE7FF"/>
<path d="M20.2693 5.50452C20.2693 5.50452 3.94833 63.5301 1.02539 65.4267C-1.89754 67.3285 67.0835 78.1422 67.0835 78.1422C67.0835 78.1422 83.919 16.6962 84.0646 15.2341C84.2116 13.7733 20.2653 5.50452 20.2653 5.50452" fill="#48A1F7"/>
<path d="M46.6606 16.1096C46.9651 16.4233 47.2499 16.6503 47.4311 16.4666C47.6109 16.2776 47.3956 15.9941 47.0859 15.683L41.2072 8.96301C40.9014 8.65195 40.2648 8.78057 40.0824 8.96301C39.9013 9.14938 39.7674 9.7912 40.0824 10.1049L46.658 16.1096" fill="#AEAEAE"/>
<path d="M46.9098 15.8903L41.0351 9.17688C40.77 8.90126 40.2502 8.96557 39.9995 9.10601C40.023 9.05653 40.0544 9.0113 40.0927 8.97213C40.2699 8.78576 40.9065 8.65451 41.2136 8.97213L47.0923 15.6895C47.4007 16.0032 47.616 16.288 47.4375 16.4731C47.4069 16.5056 47.3662 16.5269 47.322 16.5334C47.3325 16.3576 47.1487 16.1331 46.9098 15.8903Z" fill="#7C7B7D"/>
<path d="M36.9428 11.1207C37.7565 12.7522 39.9471 13.1617 41.8266 12.0421C43.7061 10.9173 44.5684 8.68734 43.7546 7.05984C42.9383 5.43234 40.7503 5.02547 38.8682 6.14241C36.9913 7.26328 36.129 9.49847 36.9428 11.1207Z" fill="#F8B501"/>
<path d="M42.7104 8.78566C41.8966 7.15816 39.7087 6.74735 37.8292 7.87085C37.4465 8.0986 37.0971 8.37819 36.791 8.70166C37.1021 7.70416 37.8213 6.75654 38.8556 6.13704C40.7351 5.01616 42.923 5.42566 43.7407 7.05448C44.3851 8.34335 43.9756 10.0076 42.8469 11.2007C43.1041 10.3751 43.0792 9.52329 42.7104 8.78566Z" fill="#F8B501"/>
<path d="M40.3794 11.9187C40.3794 11.9187 38.3083 12.4516 37.1887 10.534C37.1887 10.534 36.8882 9.84628 37.2846 10.0497C37.2846 10.0497 37.9644 11.4974 40.3794 11.9187Z" fill="#F4F5F5"/>
<rect x="38.6389" y="20.4889" width="17.0343" height="7.74134" transform="rotate(8.04774 38.6389 20.4889)" stroke="white"/>
</g>
<defs>
<clipPath id="clip0">
<rect width="84" height="84" fill="white" transform="translate(0.5 0.254517)"/>
</clipPath>
</defs>
</svg>
