<svg width="20" height="18" viewBox="0 0 20 18" fill="none" xmlns="http://www.w3.org/2000/svg">
<path fill-rule="evenodd" clip-rule="evenodd" d="M11.7676 1.20143C11.0164 -0.217539 8.98368 -0.21753 8.23246 1.20143L0.893369 15.0642C0.188191 16.3962 1.1538 17.9999 2.66094 17.9999H17.3391C18.8463 17.9999 19.8119 16.3962 19.1067 15.0642L11.7676 1.20143ZM10 5.99994C9.44772 5.99994 9 6.44765 9 6.99994V10.9999C9 11.5522 9.44772 11.9999 10 11.9999C10.5523 11.9999 11 11.5522 11 10.9999V6.99994C11 6.44765 10.5523 5.99994 10 5.99994ZM10 14.9999C10.5523 14.9999 11 14.5522 11 13.9999C11 13.4477 10.5523 12.9999 10 12.9999C9.44772 12.9999 9 13.4477 9 13.9999C9 14.5522 9.44772 14.9999 10 14.9999Z" fill="white"/>
</svg>
