<svg width="18" height="14" viewBox="0 0 18 14" fill="none" xmlns="http://www.w3.org/2000/svg">
<path d="M18 3.56534V2.56818C18 1.42595 17.1186 0.5 16.0312 0.5H1.96875C0.881438 0.5 0 1.42595 0 2.56818V3.56534C0 3.66731 0.0787148 3.75 0.175781 3.75H17.8242C17.9213 3.75 18 3.66731 18 3.56534Z" fill="#48A1F7"/>
<path d="M0 5.11654V11.4319C0 12.5741 0.881438 13.5001 1.96875 13.5001H16.0312C17.1186 13.5001 18 12.5741 18 11.4319V5.11654C18 5.01458 17.9213 4.93188 17.8242 4.93188H0.175781C0.0787148 4.93188 0 5.01458 0 5.11654ZM4.5 9.95461C4.5 10.2809 4.24814 10.5455 3.9375 10.5455H3.375C3.06436 10.5455 2.8125 10.2809 2.8125 9.95461V9.3637C2.8125 9.03737 3.06436 8.77279 3.375 8.77279H3.9375C4.24814 8.77279 4.5 9.03737 4.5 9.3637V9.95461Z" fill="#48A1F7"/>
</svg>
