<svg width="40" height="40" viewBox="0 0 40 40" fill="none" xmlns="http://www.w3.org/2000/svg">
<path d="M20.3052 0.267822L23.5299 3.50226L27.7468 1.74803L29.4881 5.97027L34.0554 5.96331L34.0484 10.5305L38.2707 12.2719L36.5164 16.4888L39.7509 19.7134L36.5164 22.9381L38.2707 27.155L34.0484 28.8963L34.0554 33.4636L29.4881 33.4566L27.7468 37.6789L23.5299 35.9246L20.3052 39.1591L17.0806 35.9246L12.8637 37.6789L11.1223 33.4566L6.55511 33.4636L6.56206 28.8963L2.33983 27.155L4.09406 22.9381L0.859619 19.7134L4.09406 16.4888L2.33983 12.2719L6.56206 10.5305L6.55511 5.96331L11.1223 5.97027L12.8637 1.74803L17.0806 3.50226L20.3052 0.267822Z" fill="#48A1F7"/>
</svg>
