<svg width="26" height="27" viewBox="0 0 26 27" fill="none" xmlns="http://www.w3.org/2000/svg">
<path d="M19.7583 0.75C20.2224 0.75 20.6675 0.934374 20.9957 1.26256C21.3239 1.59075 21.5083 2.03587 21.5083 2.5V25.25H24.1333C24.3654 25.25 24.5879 25.3422 24.752 25.5063C24.9161 25.6704 25.0083 25.8929 25.0083 26.125C25.0083 26.3571 24.9161 26.5796 24.752 26.7437C24.5879 26.9078 24.3654 27 24.1333 27H1.3833C1.15124 27 0.928677 26.9078 0.764582 26.7437C0.600488 26.5796 0.508301 26.3571 0.508301 26.125C0.508301 25.8929 0.600488 25.6704 0.764582 25.5063C0.928677 25.3422 1.15124 25.25 1.3833 25.25H4.0083V2.5C4.0083 2.03587 4.19268 1.59075 4.52086 1.26256C4.84905 0.934374 5.29417 0.75 5.7583 0.75H19.7583ZM16.2583 16.5C16.7224 16.5 17.1675 16.3156 17.4957 15.9874C17.8239 15.6592 18.0083 15.2141 18.0083 14.75C18.0083 14.2859 17.8239 13.8408 17.4957 13.5126C17.1675 13.1844 16.7224 13 16.2583 13C15.7942 13 15.3491 13.1844 15.0209 13.5126C14.6927 13.8408 14.5083 14.2859 14.5083 14.75C14.5083 15.2141 14.6927 15.6592 15.0209 15.9874C15.3491 16.3156 15.7942 16.5 16.2583 16.5Z" fill="#C10505"/>
</svg>
