<svg width="20" height="20" viewBox="0 0 20 20" fill="none" xmlns="http://www.w3.org/2000/svg">
<path d="M16.5193 12.5159C15.003 12.5159 13.7142 13.4854 13.2367 14.8381H6.76339C6.28592 13.4854 4.99693 12.5159 3.48082 12.5159C1.55838 12.5159 0 14.0743 0 15.9968C0 17.9192 1.55838 19.4776 3.48082 19.4776C4.99693 19.4776 6.28592 18.5081 6.76339 17.1554H13.2367C13.7142 18.5081 15.003 19.4776 16.5193 19.4776C18.4417 19.4776 20 17.9193 20 15.9968C20 14.0743 18.4417 12.5159 16.5193 12.5159Z" fill="#D7DEE7"/>
<path d="M4.75431 11.0809C6.20661 10.6457 7.1631 9.34699 7.23223 7.91422L13.4331 6.0562C14.2786 7.21496 15.7917 7.77371 17.2441 7.33857C19.0856 6.78677 20.1311 4.84669 19.5793 3.00509C19.0276 1.16353 17.0874 0.118016 15.2459 0.669769C13.7936 1.10504 12.8371 2.40365 12.768 3.83646L6.56714 5.69444C5.72153 4.53576 4.20845 3.97701 2.75611 4.41212C0.914543 4.96395 -0.13097 6.90399 0.420825 8.74559C0.972702 10.5872 2.91274 11.6327 4.75431 11.0809Z" fill="#D7DEE7"/>
</svg>
