<svg width="28" height="28" viewBox="0 0 28 28" fill="none" xmlns="http://www.w3.org/2000/svg">
<path d="M25.4394 11.7151H24.4997V11.6667H13.9997V16.3334H20.5931C19.6312 19.05 17.0464 21 13.9997 21C10.1339 21 6.99967 17.8658 6.99967 14C6.99967 10.1343 10.1339 7.00004 13.9997 7.00004C15.7841 7.00004 17.4075 7.67321 18.6436 8.77279L21.9435 5.47287C19.8598 3.53096 17.0727 2.33337 13.9997 2.33337C7.55676 2.33337 2.33301 7.55712 2.33301 14C2.33301 20.443 7.55676 25.6667 13.9997 25.6667C20.4426 25.6667 25.6663 20.443 25.6663 14C25.6663 13.2178 25.5858 12.4542 25.4394 11.7151Z" fill="#FFC107"/>
<path d="M3.67871 8.56979L7.51179 11.3809C8.54896 8.81304 11.0608 7.00004 14.0002 7.00004C15.7846 7.00004 17.408 7.67321 18.6441 8.77279L21.944 5.47287C19.8604 3.53096 17.0732 2.33337 14.0002 2.33337C9.51904 2.33337 5.63288 4.86329 3.67871 8.56979Z" fill="#FF3D00"/>
<path d="M13.9995 25.6667C17.013 25.6667 19.7512 24.5135 21.8214 22.638L18.2106 19.5825C16.9999 20.5033 15.5205 21.0012 13.9995 21C10.965 21 8.38845 19.0651 7.41778 16.3649L3.61328 19.2961C5.54411 23.0744 9.46528 25.6667 13.9995 25.6667Z" fill="#4CAF50"/>
<path d="M25.4398 11.715H24.5V11.6666H14V16.3333H20.5934C20.1333 17.6262 19.3045 18.756 18.2093 19.583L18.2111 19.5819L21.8219 22.6374C21.5664 22.8695 25.6667 19.8333 25.6667 14C25.6667 13.2177 25.5862 12.4541 25.4398 11.715Z" fill="#1976D2"/>
</svg>
