<svg width="20" height="22" viewBox="0 0 20 22" fill="none" xmlns="http://www.w3.org/2000/svg">
<path d="M6.9946 20.5045V17.192C6.9946 16.3464 7.65855 15.6609 8.47758 15.6609H11.4715C11.8648 15.6609 12.242 15.8222 12.5201 16.1094C12.7982 16.3965 12.9545 16.7859 12.9545 17.192V20.5045C12.952 20.8561 13.0855 21.1941 13.3254 21.4436C13.5653 21.6931 13.8918 21.8334 14.2323 21.8334H16.2749C17.2288 21.836 18.1446 21.4465 18.82 20.751C19.4954 20.0554 19.875 19.111 19.875 18.1261V8.68918C19.875 7.89358 19.5334 7.13891 18.9424 6.62847L11.9938 0.898939C10.7851 -0.105643 9.05328 -0.073208 7.88066 0.975975L1.09068 6.62847C0.471646 7.12386 0.101658 7.88077 0.083374 8.68918V18.1164C0.083374 20.1693 1.69523 21.8334 3.68355 21.8334H5.67951C6.38673 21.8334 6.9615 21.2443 6.96662 20.5142L6.9946 20.5045Z" fill="#48A1F7"/>
</svg>
