<svg width="21" height="14" viewBox="0 0 21 14" fill="none" xmlns="http://www.w3.org/2000/svg">
<path fill-rule="evenodd" clip-rule="evenodd" d="M14.5951 13.2586C17.9331 13.2586 20.639 10.4557 20.639 6.99821C20.639 3.54068 17.9331 0.737793 14.5951 0.737793C13.0991 0.737793 11.7301 1.30076 10.6747 2.23333C9.61933 1.30078 8.25031 0.737812 6.75436 0.737812C3.4164 0.737812 0.710449 3.5407 0.710449 6.99823C0.710449 10.4558 3.4164 13.2587 6.75436 13.2587C8.25032 13.2587 9.61935 12.6957 10.6747 11.7631C11.7301 12.6957 13.0991 13.2586 14.5951 13.2586Z" fill="#ED0006"/>
<path fill-rule="evenodd" clip-rule="evenodd" d="M10.6748 11.7631C11.9743 10.6148 12.7983 8.9062 12.7983 6.99821C12.7983 5.09023 11.9743 3.3816 10.6748 2.23332C11.7302 1.30076 13.0992 0.737793 14.5952 0.737793C17.9331 0.737793 20.6391 3.54068 20.6391 6.99821C20.6391 10.4557 17.9331 13.2586 14.5952 13.2586C13.0992 13.2586 11.7302 12.6957 10.6748 11.7631Z" fill="#F9A000"/>
<path fill-rule="evenodd" clip-rule="evenodd" d="M10.6748 11.7631C11.9743 10.6148 12.7983 8.90622 12.7983 6.99826C12.7983 5.09029 11.9743 3.38167 10.6748 2.2334C9.37527 3.38167 8.55127 5.09029 8.55127 6.99826C8.55127 8.90622 9.37527 10.6148 10.6748 11.7631Z" fill="#FF5E00"/>
</svg>
