<svg width="20" height="22" viewBox="0 0 20 22" fill="none" xmlns="http://www.w3.org/2000/svg">
<path fill-rule="evenodd" clip-rule="evenodd" d="M5.291 0H14.5101C17.908 0 19.8 1.958 19.8 5.313V16.676C19.8 20.086 17.908 22 14.5101 22H5.291C1.947 22 0 20.086 0 16.676V5.313C0 1.958 1.947 0 5.291 0ZM5.58805 5.12599V5.11499H8.87595C9.35005 5.11499 9.73505 5.49999 9.73505 5.97189C9.73505 6.45699 9.35005 6.84199 8.87595 6.84199H5.58805C5.11395 6.84199 4.73005 6.45699 4.73005 5.98399C4.73005 5.51099 5.11395 5.12599 5.58805 5.12599ZM5.58805 11.814H14.2121C14.6851 11.814 15.0701 11.429 15.0701 10.956C15.0701 10.483 14.6851 10.0969 14.2121 10.0969H5.58805C5.11395 10.0969 4.73005 10.483 4.73005 10.956C4.73005 11.429 5.11395 11.814 5.58805 11.814ZM5.58796 16.841H14.212C14.6509 16.797 14.982 16.4219 14.982 15.983C14.982 15.532 14.6509 15.158 14.212 15.114H5.58796C5.25796 15.081 4.93896 15.235 4.76296 15.521C4.58696 15.796 4.58696 16.159 4.76296 16.445C4.93896 16.72 5.25796 16.885 5.58796 16.841Z" fill="#EAEAEA"/>
</svg>
