<svg width="20" height="24" viewBox="0 0 20 24" fill="none" xmlns="http://www.w3.org/2000/svg">
<path fill-rule="evenodd" clip-rule="evenodd" d="M15.9559 6.95243C15.9559 10.2566 13.3067 12.906 10.0002 12.906C6.6948 12.906 4.04443 10.2566 4.04443 6.95243C4.04443 3.64828 6.6948 1 10.0002 1C13.3067 1 15.9559 3.64828 15.9559 6.95243ZM10 23.5C5.12017 23.5 1 22.7069 1 19.6468C1 16.5857 5.14605 15.8207 10 15.8207C14.881 15.8207 19 16.6138 19 19.6738C19 22.735 14.8539 23.5 10 23.5Z" fill="#EAEAEA"/>
<path d="M10.0002 13.406C13.5827 13.406 16.4559 10.5328 16.4559 6.95243H15.4559C15.4559 9.98034 13.0306 12.406 10.0002 12.406V13.406ZM3.54443 6.95243C3.54443 10.5329 6.41883 13.406 10.0002 13.406V12.406C6.97077 12.406 4.54443 9.98028 4.54443 6.95243H3.54443ZM10.0002 0.5C6.41895 0.5 3.54443 3.37184 3.54443 6.95243H4.54443C4.54443 3.92471 6.97065 1.5 10.0002 1.5V0.5ZM16.4559 6.95243C16.4559 3.3719 13.5826 0.5 10.0002 0.5V1.5C13.0307 1.5 15.4559 3.92465 15.4559 6.95243H16.4559ZM0.5 19.6468C0.5 20.5366 0.804203 21.2806 1.35141 21.8777C1.88829 22.4635 2.63791 22.8858 3.50315 23.1922C5.22697 23.8027 7.54793 24 10 24V23C7.57224 23 5.3932 22.8007 3.83697 22.2496C3.06219 21.9752 2.47678 21.6255 2.08864 21.202C1.71082 20.7897 1.5 20.287 1.5 19.6468H0.5ZM10 15.3207C7.56177 15.3207 5.24136 15.5108 3.51491 16.1138C2.64843 16.4164 1.89606 16.8349 1.35662 17.418C0.806523 18.0127 0.5 18.7558 0.5 19.6468H1.5C1.5 19.0073 1.71173 18.5068 2.09071 18.0971C2.48034 17.6759 3.06785 17.3291 3.84463 17.0578C5.40469 16.513 7.58428 16.3207 10 16.3207V15.3207ZM19.5 19.6738C19.5 18.7841 19.1959 18.0401 18.6488 17.443C18.112 16.8572 17.3625 16.4348 16.4973 16.1284C14.7736 15.5179 12.4526 15.3207 10 15.3207V16.3207C12.4283 16.3207 14.6074 16.5199 16.1634 17.071C16.9381 17.3454 17.5234 17.6951 17.9115 18.1186C18.2892 18.5308 18.5 19.0336 18.5 19.6738H19.5ZM10 24C12.4382 24 14.7586 23.8098 16.4851 23.2069C17.3516 22.9043 18.1039 22.4858 18.6434 21.9026C19.1935 21.3079 19.5 20.5649 19.5 19.6738H18.5C18.5 20.3134 18.2883 20.8139 17.9093 21.2236C17.5197 21.6448 16.9321 21.9915 16.1554 22.2628C14.5953 22.8076 12.4157 23 10 23V24Z" fill="#EAEAEA"/>
</svg>
