<svg width="18" height="18" viewBox="0 0 18 18" fill="none" xmlns="http://www.w3.org/2000/svg">
<path fill-rule="evenodd" clip-rule="evenodd" d="M10.9093 8.3098H13.4003C13.778 8.3098 14.0748 7.99752 14.0748 7.62096C14.0748 7.2352 13.778 6.93211 13.4003 6.93211H10.9093C10.5316 6.93211 10.2348 7.2352 10.2348 7.62096C10.2348 7.99752 10.5316 8.3098 10.9093 8.3098ZM16.3589 3.53474C16.9075 3.53474 17.2672 3.72762 17.6269 4.15011C17.9867 4.5726 18.0496 5.17878 17.9687 5.72894L17.1143 11.754C16.9525 12.9122 15.9812 13.7654 14.8391 13.7654H5.02775C3.83168 13.7654 2.84245 12.8295 2.74353 11.6172L1.91617 1.60506L0.558233 1.36626C0.198513 1.30197 -0.0532905 0.943773 0.0096604 0.57639C0.0726113 0.200741 0.423338 -0.0481615 0.792051 0.00786447L2.93688 0.337591C3.24264 0.393617 3.46747 0.649867 3.49444 0.962143L3.66531 3.01949C3.69229 3.31431 3.92611 3.53474 4.21388 3.53474H16.3589ZM4.88384 15.2171C4.12843 15.2171 3.5169 15.8416 3.5169 16.6131C3.5169 17.3755 4.12843 18 4.88384 18C5.63026 18 6.24178 17.3755 6.24178 16.6131C6.24178 15.8416 5.63026 15.2171 4.88384 15.2171ZM15.0007 15.2171C14.2453 15.2171 13.6338 15.8416 13.6338 16.6131C13.6338 17.3755 14.2453 18 15.0007 18C15.7471 18 16.3586 17.3755 16.3586 16.6131C16.3586 15.8416 15.7471 15.2171 15.0007 15.2171Z" fill="white"/>
</svg>
