<svg width="85" height="24" viewBox="0 0 85 24" fill="none" xmlns="http://www.w3.org/2000/svg">
<path d="M2.232 0.599998L0.792 7.288H5.88L2.552 23H10.424L13.72 7.288H18.872L20.312 0.599998H2.232ZM26.7078 23.48C32.8198 23.48 37.3638 19.928 38.5478 14.328L41.4598 0.599998H33.6838L30.7718 14.296C30.4198 15.992 29.4278 16.888 28.0838 16.888C26.4518 16.888 26.3878 15.48 26.6438 14.296L29.5558 0.599998H21.7158L18.7718 14.328C17.7477 19.192 19.8598 23.48 26.7078 23.48ZM55.8498 0.567999L49.6098 9.368L51.4978 0.599998H43.6578L38.8577 23H46.6978L48.7458 13.432L52.0738 22.936H60.4898L56.2338 11.608L65.0018 0.567999H55.8498ZM84.1863 23L81.5303 0.599998H72.9543L60.7622 23H68.8583L70.2983 19.896H75.9943L76.0903 23H84.1863ZM75.5463 8.728H75.5783L75.8023 14.968H72.6343L75.5463 8.728Z" fill="white"/>
</svg>
